<svg viewBox="0 0 118 118" fill="none" xmlns="http://www.w3.org/2000/svg">
<path fill-rule="evenodd" clip-rule="evenodd" d="M78.8735 0.741207C89.1694 -1.5102 100.362 1.36743 108.368 9.37304C109.141 10.1466 109.866 10.9509 110.543 11.7803C110.631 11.8872 110.716 11.9958 110.802 12.1035C110.883 12.2055 110.966 12.3074 111.045 12.4102C111.088 12.465 111.13 12.5201 111.172 12.5752C111.459 12.9492 111.737 13.3275 112.004 13.7109C112.04 13.7618 112.074 13.8142 112.109 13.8652C112.225 14.0343 112.342 14.2032 112.455 14.374C112.482 14.4148 112.508 14.4562 112.535 14.4971C112.641 14.6589 112.745 14.8211 112.848 14.9844C112.918 15.0956 112.986 15.2085 113.054 15.3203C113.134 15.4504 113.214 15.58 113.291 15.7109C113.328 15.7727 113.363 15.8355 113.399 15.8975C113.492 16.0566 113.584 16.2156 113.674 16.376C113.74 16.4927 113.803 16.6111 113.867 16.7285C113.923 16.8315 113.979 16.9346 114.034 17.0381C114.102 17.1667 114.168 17.2964 114.234 17.4258C114.289 17.5339 114.346 17.6413 114.4 17.75C114.451 17.8521 114.5 17.9551 114.549 18.0576C114.613 18.1884 114.676 18.3188 114.738 18.4502C114.8 18.5829 114.859 18.7172 114.919 18.8506C114.962 18.9456 115.006 19.0404 115.047 19.1357C115.104 19.2651 115.158 19.3954 115.213 19.5254C115.261 19.6383 115.31 19.7509 115.357 19.8643C115.404 19.9785 115.448 20.0943 115.494 20.209C115.546 20.341 115.598 20.4729 115.649 20.6055C115.69 20.7131 115.728 20.8217 115.768 20.9297C115.813 21.0516 115.858 21.1735 115.902 21.2959C115.949 21.4297 115.996 21.5639 116.041 21.6982C116.08 21.8118 116.119 21.9252 116.156 22.0391C116.191 22.1475 116.225 22.2565 116.259 22.3652C116.305 22.5103 116.35 22.6552 116.394 22.8008C116.425 22.904 116.454 23.0078 116.484 23.1113C116.521 23.2413 116.558 23.3716 116.594 23.5019C116.628 23.6237 116.66 23.7461 116.692 23.8682C116.725 23.993 116.757 24.118 116.789 24.2432C116.82 24.3691 116.85 24.4958 116.879 24.6221C116.908 24.7427 116.936 24.8635 116.963 24.9844C116.996 25.1299 117.027 25.276 117.057 25.4219C117.078 25.5202 117.099 25.6183 117.119 25.7168C117.145 25.8517 117.172 25.9869 117.197 26.1221C117.222 26.2559 117.245 26.3903 117.268 26.5244C117.286 26.6265 117.302 26.7289 117.319 26.8311C117.342 26.9729 117.365 27.1147 117.386 27.2568C117.406 27.3869 117.424 27.5172 117.442 27.6475C117.457 27.7596 117.472 27.8721 117.486 27.9844C117.503 28.1177 117.519 28.2513 117.534 28.3848C117.549 28.5196 117.563 28.6551 117.577 28.79C117.588 28.9017 117.599 29.0133 117.609 29.125C117.621 29.2591 117.632 29.394 117.642 29.5283C117.651 29.6438 117.659 29.7594 117.666 29.875C117.677 30.0282 117.686 30.1817 117.694 30.335C117.699 30.4266 117.704 30.5186 117.707 30.6103C117.714 30.7612 117.72 30.9125 117.724 31.0635C117.727 31.1766 117.73 31.2901 117.732 31.4033C117.735 31.5595 117.736 31.7159 117.737 31.8721C117.737 31.9572 117.737 32.0428 117.737 32.1279C117.736 32.2767 117.735 32.4254 117.732 32.5742C117.73 32.7023 117.727 32.8309 117.723 32.959C117.719 33.0901 117.714 33.2215 117.708 33.3525C117.704 33.4595 117.699 33.5669 117.694 33.6738C117.686 33.8236 117.676 33.9734 117.666 34.123C117.659 34.231 117.652 34.3394 117.644 34.4473C117.633 34.5905 117.621 34.7338 117.608 34.8769C117.597 34.9951 117.586 35.1134 117.574 35.2314C117.562 35.3437 117.551 35.4562 117.539 35.5684C117.521 35.7218 117.504 35.8751 117.485 36.0283C117.473 36.1233 117.46 36.2186 117.447 36.3135C117.426 36.4652 117.405 36.6171 117.382 36.7686C117.366 36.8774 117.348 36.986 117.331 37.0947C117.308 37.2382 117.284 37.3822 117.259 37.5254C117.243 37.6179 117.226 37.7103 117.209 37.8027C117.179 37.9688 117.148 38.1351 117.115 38.3008C117.099 38.3813 117.082 38.4616 117.065 38.542C117.032 38.6998 116.999 38.8582 116.963 39.0156C116.936 39.1392 116.907 39.2624 116.877 39.3857C116.851 39.4993 116.823 39.6132 116.795 39.7266C116.762 39.8614 116.727 39.9964 116.692 40.1309C116.661 40.2471 116.632 40.3635 116.6 40.4795C116.566 40.604 116.529 40.7283 116.494 40.8525C116.457 40.9814 116.42 41.1107 116.381 41.2393C116.35 41.3428 116.318 41.4465 116.286 41.5498C116.243 41.687 116.2 41.8242 116.156 41.9609C116.12 42.0694 116.083 42.178 116.046 42.2861C115.998 42.4282 115.95 42.5704 115.9 42.7119C115.859 42.8265 115.817 42.9405 115.775 43.0547C115.735 43.1623 115.696 43.2706 115.656 43.3779C115.603 43.5156 115.549 43.6529 115.495 43.79C115.448 43.9087 115.4 44.0273 115.352 44.1455C115.309 44.2515 115.263 44.3573 115.218 44.4629C115.166 44.5863 115.115 44.7101 115.061 44.833C115.011 44.9469 114.96 45.0604 114.909 45.1738C114.85 45.3048 114.791 45.4361 114.73 45.5664C114.683 45.6662 114.634 45.7649 114.586 45.8643C114.525 45.9921 114.463 46.1208 114.4 46.248C114.35 46.3484 114.299 46.4479 114.248 46.5478C114.176 46.6887 114.104 46.8307 114.03 46.9707C113.996 47.0353 113.96 47.0997 113.925 47.1641C113.839 47.3236 113.753 47.4832 113.665 47.6416C113.607 47.7436 113.548 47.8448 113.49 47.9463C113.42 48.0682 113.35 48.1904 113.278 48.3115C113.225 48.3999 113.171 48.4872 113.118 48.5752C113.031 48.7181 112.944 48.8611 112.855 49.0029C112.803 49.0858 112.749 49.1675 112.696 49.25C112.614 49.3777 112.534 49.507 112.45 49.6338C112.368 49.7571 112.283 49.8785 112.2 50.001C112.13 50.1033 112.062 50.2069 111.991 50.3086C111.898 50.4414 111.802 50.5724 111.706 50.7041C111.652 50.78 111.598 50.8571 111.542 50.9326C111.456 51.0497 111.368 51.1651 111.28 51.2812C111.2 51.3867 111.121 51.493 111.04 51.5977C111.019 51.6238 110.998 51.6497 110.978 51.6758C110.673 52.0656 110.359 52.4505 110.034 52.8291C109.682 53.2381 109.319 53.6411 108.944 54.0361L108.368 54.6279L54.6274 108.367L54.0356 108.944C41.499 120.861 21.674 120.669 9.37251 108.367C-3.12416 95.8704 -3.12418 75.61 9.37251 63.1133L63.1127 9.37304C67.2133 5.27251 72.1496 2.51694 77.3735 1.10742C77.8709 0.973203 78.3713 0.851021 78.8735 0.741207ZM15.0288 68.7695C5.65627 78.1421 5.65628 93.3384 15.0288 102.711C24.4013 112.083 39.5976 112.083 48.9702 102.711L75.8403 75.8408L41.8989 41.8994L15.0288 68.7695ZM105.298 17.1611C103.871 15.4749 101.347 15.2645 99.6606 16.6914C97.9743 18.1183 97.7641 20.6427 99.1909 22.3291C100.15 23.4626 100.756 24.1614 101.257 25.3262C101.758 26.4893 102.245 28.378 102.245 31.7451C102.245 34.9584 100.343 39.067 97.7075 42.1416C96.646 43.38 92.559 47.4757 88.5346 51.4492C86.5657 53.3932 84.6704 55.2509 83.267 56.623C82.5656 57.3089 81.9871 57.8731 81.5844 58.2656C81.3832 58.4618 81.2255 58.6146 81.1186 58.7187C81.0651 58.7708 81.024 58.8112 80.9965 58.8379C80.983 58.8511 80.9731 58.8615 80.9663 58.8682C80.963 58.8713 80.9602 58.8733 80.9585 58.875C80.9576 58.8758 80.9559 58.8775 80.9555 58.8779C79.3722 60.4181 79.3374 62.9506 80.8774 64.5342C82.4177 66.1176 84.9501 66.1525 86.5336 64.6123L86.5444 64.6016C86.5515 64.5946 86.5627 64.5848 86.5766 64.5713C86.6046 64.5441 86.6457 64.5037 86.6997 64.4512C86.8077 64.346 86.966 64.1914 87.1684 63.9941C87.5735 63.5992 88.1551 63.0318 88.8598 62.3428C90.2689 60.965 92.1737 59.0975 94.1547 57.1416C98.0302 53.3152 102.443 48.9104 103.782 47.3486C107.146 43.4232 110.245 37.5317 110.245 31.7451C110.245 27.6125 109.648 24.5842 108.607 22.1641C107.566 19.7458 106.172 18.1941 105.298 17.1611Z" fill="white"/>
</svg>
